<svg width="236" height="96" viewBox="0 0 236 96" fill="none" xmlns="http://www.w3.org/2000/svg">
<g clip-path="url(#clip0_104_3)">
<path fill-rule="evenodd" clip-rule="evenodd" d="M48.854 0C21.839 0 0 22 0 49.217C0 70.973 13.993 89.389 33.405 95.907C35.832 96.397 36.721 94.848 36.721 93.545C36.721 92.404 36.641 88.493 36.641 84.418C23.051 87.352 20.221 78.551 20.221 78.551C18.037 72.847 14.801 71.381 14.801 71.381C10.353 68.366 15.125 68.366 15.125 68.366C20.059 68.692 22.648 73.418 22.648 73.418C27.015 80.914 34.052 78.796 36.883 77.492C37.287 74.314 38.582 72.114 39.957 70.892C29.118 69.751 17.714 65.514 17.714 46.609C17.714 41.231 19.654 36.831 22.728 33.409C22.243 32.187 20.544 27.134 23.214 20.371C23.214 20.371 27.339 19.067 36.64 25.423C40.6221 24.3457 44.7288 23.7976 48.854 23.793C52.979 23.793 57.184 24.364 61.067 25.423C70.369 19.067 74.494 20.371 74.494 20.371C77.164 27.134 75.464 32.187 74.979 33.409C78.134 36.831 79.994 41.231 79.994 46.609C79.994 65.514 68.59 69.669 57.67 70.892C59.45 72.44 60.986 75.373 60.986 80.018C60.986 86.618 60.906 91.915 60.906 93.544C60.906 94.848 61.796 96.397 64.222 95.908C83.634 89.388 97.627 70.973 97.627 49.217C97.707 22 75.788 0 48.854 0Z" fill="#6582ff"/>
</g>
<path d="M115.358 70V65.5682L125.713 55.9801C126.594 55.1278 127.332 54.3608 127.929 53.679C128.535 52.9972 128.994 52.3295 129.307 51.6761C129.619 51.0133 129.776 50.2983 129.776 49.5312C129.776 48.679 129.581 47.9451 129.193 47.3295C128.805 46.7045 128.275 46.2263 127.602 45.8949C126.93 45.554 126.168 45.3835 125.315 45.3835C124.425 45.3835 123.649 45.5634 122.986 45.9233C122.323 46.2831 121.812 46.7992 121.452 47.4716C121.092 48.1439 120.912 48.9441 120.912 49.8722H115.074C115.074 47.9687 115.505 46.3163 116.366 44.9148C117.228 43.5133 118.436 42.429 119.989 41.6619C121.542 40.8949 123.331 40.5114 125.358 40.5114C127.441 40.5114 129.255 40.8807 130.798 41.6193C132.351 42.3485 133.559 43.3617 134.42 44.6591C135.282 45.9564 135.713 47.4432 135.713 49.1193C135.713 50.2178 135.495 51.3021 135.06 52.3722C134.634 53.4422 133.871 54.6307 132.773 55.9375C131.674 57.2348 130.126 58.7926 128.128 60.6108L123.881 64.7727V64.9716H136.097V70H115.358ZM151.96 70.6392C149.516 70.6297 147.414 70.0284 145.653 68.8352C143.901 67.642 142.551 65.9138 141.604 63.6506C140.667 61.3873 140.203 58.6648 140.212 55.483C140.212 52.3106 140.681 49.607 141.619 47.3722C142.566 45.1373 143.915 43.4375 145.667 42.2727C147.428 41.0985 149.526 40.5114 151.96 40.5114C154.393 40.5114 156.486 41.0985 158.238 42.2727C159.999 43.447 161.353 45.1515 162.3 47.3864C163.247 49.6117 163.716 52.3106 163.707 55.483C163.707 58.6742 163.233 61.4015 162.286 63.6648C161.349 65.928 160.004 67.6562 158.252 68.8494C156.5 70.0426 154.403 70.6392 151.96 70.6392ZM151.96 65.5398C153.626 65.5398 154.957 64.7017 155.951 63.0256C156.945 61.3494 157.438 58.8352 157.428 55.483C157.428 53.2765 157.201 51.4394 156.746 49.9716C156.301 48.5038 155.667 47.4006 154.843 46.6619C154.029 45.9233 153.067 45.554 151.96 45.554C150.302 45.554 148.977 46.3826 147.982 48.0398C146.988 49.697 146.486 52.178 146.477 55.483C146.477 57.7178 146.699 59.5833 147.144 61.0795C147.599 62.5663 148.238 63.6837 149.062 64.4318C149.886 65.1705 150.852 65.5398 151.96 65.5398ZM168.092 70V65.5682L178.447 55.9801C179.328 55.1278 180.067 54.3608 180.663 53.679C181.269 52.9972 181.729 52.3295 182.041 51.6761C182.354 51.0133 182.51 50.2983 182.51 49.5312C182.51 48.679 182.316 47.9451 181.928 47.3295C181.539 46.7045 181.009 46.2263 180.337 45.8949C179.664 45.554 178.902 45.3835 178.05 45.3835C177.16 45.3835 176.383 45.5634 175.72 45.9233C175.057 46.2831 174.546 46.7992 174.186 47.4716C173.826 48.1439 173.646 48.9441 173.646 49.8722H167.808C167.808 47.9687 168.239 46.3163 169.101 44.9148C169.963 43.5133 171.17 42.429 172.723 41.6619C174.276 40.8949 176.066 40.5114 178.092 40.5114C180.176 40.5114 181.989 40.8807 183.533 41.6193C185.086 42.3485 186.293 43.3617 187.155 44.6591C188.017 45.9564 188.447 47.4432 188.447 49.1193C188.447 50.2178 188.23 51.3021 187.794 52.3722C187.368 53.4422 186.606 54.6307 185.507 55.9375C184.409 57.2348 182.86 58.7926 180.862 60.6108L176.615 64.7727V64.9716H188.831V70H168.092ZM192.222 64.8864V60.0426L204.367 40.9091H208.543V47.6136H206.072L198.415 59.7301V59.9574H215.674V64.8864H192.222ZM206.185 70V63.4091L206.299 61.2642V40.9091H212.066V70H206.185Z" fill="#6582ff"/>
<defs>
<clipPath id="clip0_104_3">
<rect width="98" height="96" fill="white"/>
</clipPath>
</defs>
</svg>
