<svg width="553" height="206" viewBox="0 0 553 206" fill="none" xmlns="http://www.w3.org/2000/svg">
<g clip-path="url(#clip0_107_9)">
<mask id="mask0_107_9" style="mask-type:luminance" maskUnits="userSpaceOnUse" x="0" y="0" width="553" height="206">
<path d="M552.8 0H0V205.3H552.8V0Z" fill="white"/>
</mask>
<g mask="url(#mask0_107_9)">
<path d="M285.4 68L311.7 66.3C312.3 70.6 313.4 73.8 315.2 76.1C318.1 79.7 322.1 81.5 327.4 81.5C331.3 81.5 334.4 80.6 336.5 78.7C338.5 77.2 339.7 74.8 339.7 72.3C339.7 69.9 338.6 67.6 336.7 66.1C334.7 64.3 330 62.5 322.6 60.9C310.5 58.2 301.8 54.6 296.7 50C291.6 45.7 288.7 39.4 288.9 32.7C288.9 28.1 290.3 23.5 292.9 19.7C295.9 15.4 300 12 304.9 10.1C310.2 7.80004 317.6 6.60004 326.9 6.60004C338.3 6.60004 347 8.70004 353 13C359 17.2 362.6 24 363.7 33.3L337.7 34.8C337 30.8 335.6 27.9 333.3 26C331 24.1 328 23.2 324.1 23.2C320.9 23.2 318.5 23.9 316.9 25.2C315.4 26.4 314.4 28.2 314.5 30.2C314.5 31.7 315.3 33.1 316.5 34C317.8 35.2 320.9 36.3 325.8 37.3C337.9 39.9 346.5 42.5 351.8 45.2C357.1 47.9 360.9 51.2 363.2 55.1C365.6 59.1 366.8 63.7 366.7 68.4C366.7 74 365.1 79.6 361.9 84.3C358.6 89.2 354 93 348.6 95.3C342.9 97.8 335.7 99.1 327.1 99.1C311.9 99.1 301.4 96.2 295.5 90.3C289.6 84.4 286.1 77 285.4 68ZM6.3 97.6V8.20004H52.4C60.9 8.20004 67.5 8.90004 72 10.4C76.4 11.8 80.3 14.7 82.9 18.6C85.8 22.9 87.2 27.9 87.1 33.1C87.4 41.9 82.9 50.3 75.2 54.7C72.2 56.4 68.9 57.6 65.5 58.2C68 58.9 70.5 60.1 72.7 61.5C74.4 62.9 75.8 64.5 77.1 66.2C78.6 67.9 79.9 69.8 81 71.8L94.4 97.7H63L48.2 70.2C46.3 66.7 44.7 64.4 43.2 63.3C41.2 61.9 38.8 61.2 36.4 61.2H34V97.5H6.3V97.6ZM34 44.4H45.7C48.2 44.2 50.6 43.8 53 43.2C54.8 42.9 56.4 41.9 57.5 40.4C60.2 36.8 59.8 31.7 56.5 28.6C54.7 27.1 51.2 26.3 46.2 26.3H34V44.4ZM0 174.2L26.3 172.5C26.9 176.8 28 180 29.8 182.3C32.6 185.9 36.7 187.8 42 187.8C45.9 187.8 49 186.9 51.1 185C53.1 183.4 54.3 181.1 54.3 178.6C54.3 176.2 53.2 173.9 51.3 172.4C49.3 170.6 44.6 168.8 37.1 167.2C25 164.5 16.3 160.9 11.2 156.3C6.1 152 3.2 145.7 3.4 139C3.4 134.4 4.8 129.8 7.4 126C10.4 121.7 14.5 118.3 19.4 116.4C24.7 114.1 32.1 112.9 41.4 112.9C52.8 112.9 61.5 115 67.5 119.3C73.5 123.6 77 130.3 78.1 139.6L52.1 141.1C51.4 137.1 50 134.2 47.7 132.3C45.5 130.4 42.4 129.5 38.5 129.6C35.3 129.6 32.9 130.3 31.3 131.7C29.7 132.9 28.8 134.7 28.9 136.7C28.9 138.2 29.7 139.6 30.9 140.5C32.2 141.7 35.3 142.8 40.2 143.8C52.3 146.4 60.9 149 66.2 151.7C71.5 154.4 75.3 157.7 77.6 161.6C80 165.6 81.2 170.2 81.2 174.8C81.2 180.4 79.5 185.9 76.4 190.6C73.1 195.5 68.5 199.3 63.1 201.6C57.4 204.1 50.2 205.4 41.6 205.4C26.4 205.4 15.9 202.5 10 196.6C4.1 190.6 0.8 183.2 0 174.2Z" fill="#6582FF"/>
<path d="M139.605 167.065L163.344 174.333C162.069 180.407 159.42 186.182 155.791 191.26C152.455 195.74 148.041 199.225 143.038 201.515C137.937 203.805 131.463 205 123.615 205C114.1 205 106.252 203.606 100.268 200.818C94.1859 198.03 88.9868 193.052 84.5725 185.983C80.1581 178.913 78 169.853 78 158.801C78 144.065 81.8258 132.714 89.5754 124.848C97.325 116.983 108.214 113 122.34 113C133.425 113 142.057 115.29 148.433 119.771C154.712 124.351 159.42 131.32 162.559 140.68L138.624 146.056C138.035 143.965 137.152 141.874 135.975 140.082C134.504 137.991 132.64 136.398 130.384 135.203C128.127 134.009 125.577 133.511 123.026 133.511C116.846 133.511 112.138 136 108.9 141.078C106.448 144.762 105.173 150.636 105.173 158.602C105.173 168.459 106.644 175.229 109.587 178.913C112.53 182.597 116.65 184.39 122.045 184.39C127.245 184.39 131.168 182.896 133.817 180.009C136.466 176.922 138.428 172.641 139.605 167.065ZM195.029 114.494H222.104V145.658H251.729V114.494H279V203.506H251.729V167.463H222.104V203.506H195.029V114.494Z" fill="#6582FF"/>
<path d="M271.3 159.1C271.3 144.5 275.4 133.1 283.5 125C291.6 116.9 303 112.8 317.5 112.8C332.4 112.8 343.8 116.8 351.9 124.8C360 132.8 364 144 364 158.4C364 168.9 362.2 177.4 358.7 184.1C355.3 190.7 350 196.1 343.5 199.7C336.8 203.4 328.5 205.3 318.6 205.3C308.5 205.3 300.2 203.7 293.6 200.5C286.8 197.1 281.2 191.8 277.5 185.3C273.4 178.3 271.3 169.6 271.3 159.1ZM298.9 159.2C298.9 168.2 300.6 174.7 303.9 178.7C307.2 182.6 311.8 184.6 317.6 184.6C323.5 184.6 328.1 182.7 331.4 178.8C334.7 174.9 336.3 168 336.3 158C336.3 149.6 334.6 143.4 331.2 139.6C327.8 135.7 323.2 133.8 317.4 133.8C312.3 133.6 307.4 135.8 304 139.7C300.6 143.6 298.9 150.1 298.9 159.2ZM392.3 159.1C392.3 144.5 396.4 133.1 404.5 125C412.6 116.9 424 112.8 438.5 112.8C453.4 112.8 464.9 116.8 472.9 124.8C480.9 132.8 485 144 485 158.4C485 168.9 483.2 177.4 479.7 184.1C476.3 190.7 471 196.1 464.5 199.7C457.8 203.4 449.5 205.3 439.6 205.3C429.5 205.3 421.2 203.7 414.6 200.5C407.8 197.1 402.2 191.8 398.5 185.3C394.4 178.3 392.3 169.6 392.3 159.1ZM419.9 159.2C419.9 168.2 421.6 174.7 424.9 178.7C428.2 182.6 432.8 184.6 438.6 184.6C444.5 184.6 449.1 182.7 452.4 178.8C455.7 174.9 457.3 168 457.3 158C457.3 149.6 455.6 143.4 452.2 139.6C448.8 135.7 444.2 133.8 438.4 133.8C433.3 133.6 428.3 135.8 425 139.7C421.6 143.6 419.9 150.1 419.9 159.2Z" fill="#6582FF"/>
<path d="M482.1 114.4H509.7V181.8H552.8V203.8H482V114.4H482.1Z" fill="#6582FF"/>
<mask id="mask1_107_9" style="mask-type:luminance" maskUnits="userSpaceOnUse" x="374" y="0" width="119" height="113">
<path d="M464.372 97.4849C492.159 76.5446 500.728 41.0479 483.51 18.2006C466.293 -4.64682 429.81 -6.19303 402.022 14.747C374.235 35.687 365.666 71.1837 382.884 94.0309C400.101 116.878 436.584 118.425 464.372 97.4849Z" fill="white"/>
</mask>
<g mask="url(#mask1_107_9)">
<mask id="mask2_107_9" style="mask-type:luminance" maskUnits="userSpaceOnUse" x="312" y="-64" width="243" height="241">
<path d="M312.018 44.7845L455.611 -63.4244L554.973 68.4286L411.38 176.638L312.018 44.7845Z" fill="white"/>
</mask>
<g mask="url(#mask2_107_9)">
<mask id="mask3_107_9" style="mask-type:luminance" maskUnits="userSpaceOnUse" x="374" y="0" width="119" height="113">
<path d="M464.372 97.4848C492.159 76.5445 500.728 41.0478 483.51 18.2005C466.293 -4.64681 429.81 -6.19303 402.022 14.7469C374.235 35.6869 365.666 71.1836 382.884 94.0308C400.101 116.878 436.584 118.425 464.372 97.4848Z" fill="white"/>
</mask>
<g mask="url(#mask3_107_9)">
<mask id="mask4_107_9" style="mask-type:luminance" maskUnits="userSpaceOnUse" x="352" y="-23" width="163" height="160">
<path d="M352.004 53.5887L452.552 -22.1798L514.96 60.6387L414.412 136.407L352.004 53.5887Z" fill="white"/>
</mask>
<g mask="url(#mask4_107_9)">
<path d="M464.372 97.4849C492.159 76.5446 500.728 41.0479 483.51 18.2006C466.293 -4.64676 429.81 -6.19297 402.022 14.747C374.235 35.687 365.666 71.1837 382.884 94.0309C400.101 116.878 436.584 118.425 464.372 97.4849Z" stroke="#6582FF" stroke-width="4" stroke-miterlimit="10"/>
</g>
<mask id="mask5_107_9" style="mask-type:luminance" maskUnits="userSpaceOnUse" x="366" y="-18" width="135" height="150">
<path d="M366.332 103.326L401.035 -17.697L500.717 10.8865L466.015 131.91L366.332 103.326Z" fill="white"/>
</mask>
<g mask="url(#mask5_107_9)">
<path d="M352.004 53.5886L452.552 -22.1799L514.96 60.6386L414.412 136.407L352.004 53.5886Z" stroke="#6582FF" stroke-width="4" stroke-miterlimit="10"/>
</g>
<path d="M464.372 97.4848C492.159 76.5445 500.728 41.0478 483.51 18.2005C466.293 -4.64681 429.81 -6.19303 402.022 14.7469C374.235 35.6869 365.666 71.1836 382.884 94.0308C400.101 116.878 436.584 118.425 464.372 97.4848Z" stroke="#6582FF" stroke-width="4" stroke-miterlimit="10"/>
<mask id="mask6_107_9" style="mask-type:luminance" maskUnits="userSpaceOnUse" x="352" y="-23" width="163" height="160">
<path d="M352.004 53.5887L452.552 -22.1798L514.96 60.6387L414.412 136.407L352.004 53.5887Z" fill="white"/>
</mask>
<g mask="url(#mask6_107_9)">
<path d="M464.372 97.4849C492.159 76.5446 500.728 41.0479 483.51 18.2006C466.293 -4.64676 429.81 -6.19297 402.022 14.747C374.235 35.687 365.666 71.1837 382.884 94.0309C400.101 116.878 436.584 118.425 464.372 97.4849Z" stroke="#6582FF" stroke-width="4" stroke-miterlimit="10"/>
</g>
<mask id="mask7_107_9" style="mask-type:luminance" maskUnits="userSpaceOnUse" x="366" y="-18" width="135" height="150">
<path d="M366.332 103.326L401.035 -17.697L500.717 10.8865L466.015 131.91L366.332 103.326Z" fill="white"/>
</mask>
<g mask="url(#mask7_107_9)">
<path d="M352.004 53.5886L452.552 -22.1799L514.96 60.6386L414.412 136.407L352.004 53.5886Z" stroke="#6582FF" stroke-width="4" stroke-miterlimit="10"/>
</g>
<path d="M312.018 44.7845L455.611 -63.4244L554.973 68.4286L411.38 176.638L312.018 44.7845Z" stroke="#6582FF" stroke-width="4" stroke-miterlimit="10"/>
</g>
<path d="M464.372 97.4848C492.159 76.5445 500.728 41.0478 483.51 18.2005C466.293 -4.64681 429.81 -6.19303 402.022 14.7469C374.235 35.6869 365.666 71.1836 382.884 94.0308C400.101 116.878 436.584 118.425 464.372 97.4848Z" stroke="#6582FF" stroke-width="4" stroke-miterlimit="10"/>
<path d="M405.093 49.5438L415.093 42.5438L427.393 60.0438C429.493 62.8438 431.093 65.8438 432.293 69.1438C432.993 71.6438 432.793 74.3438 431.793 76.7438C430.493 79.7438 428.393 82.2438 425.593 84.0438C422.293 86.3438 419.493 87.6438 417.093 88.0438C414.793 88.4438 412.393 88.0438 410.193 87.0438C407.793 85.8438 405.693 84.1438 404.093 81.9438L412.693 73.9438C413.393 75.0438 414.293 76.0438 415.293 76.8438C415.993 77.3438 416.793 77.6438 417.693 77.6438C418.393 77.6438 419.093 77.3438 419.593 76.9438C420.593 76.3438 421.293 75.1438 421.193 73.9438C420.893 72.2438 420.193 70.5438 419.093 69.2438L405.093 49.5438ZM435.093 60.6438L444.193 53.4438C445.193 54.6438 446.493 55.5438 447.893 56.0438C449.893 56.6438 451.993 56.2438 453.693 54.9438C454.893 54.1438 455.893 53.0438 456.293 51.6438C456.893 49.8438 455.893 47.8438 454.093 47.2438C453.793 47.1438 453.493 47.0438 453.193 47.0438C451.993 46.9438 449.893 47.4438 446.793 48.7438C441.693 50.8438 437.693 51.6438 434.693 51.3438C431.793 51.0438 429.093 49.5438 427.493 47.0438C426.293 45.3438 425.693 43.3438 425.593 41.3438C425.593 39.0438 426.193 36.7438 427.493 34.8438C429.393 32.1438 431.693 29.8438 434.493 28.0438C438.693 25.1438 442.393 23.7438 445.593 23.7438C448.793 23.7438 451.793 25.2438 454.593 28.3438L445.593 35.4438C443.793 33.1438 440.393 32.6438 438.093 34.4438L437.793 34.7438C436.793 35.3438 436.093 36.2438 435.693 37.3438C435.393 38.1438 435.593 39.0438 436.093 39.7438C436.493 40.2438 437.093 40.6438 437.793 40.6438C438.593 40.7438 439.993 40.3438 441.993 39.4438C446.993 37.3438 450.793 36.1438 453.393 35.7438C455.593 35.3438 457.893 35.5438 459.993 36.4438C461.893 37.2438 463.493 38.6438 464.593 40.3438C465.993 42.3438 466.793 44.7438 466.893 47.2438C466.993 49.8438 466.293 52.3438 464.893 54.5438C463.093 57.2438 460.793 59.5438 458.093 61.3438C452.593 65.1438 448.093 66.7438 444.493 66.1438C440.593 65.5438 437.393 63.5438 435.093 60.6438Z" fill="#6582FF"/>
</g>
</g>
</g>
</g>
<defs>
<clipPath id="clip0_107_9">
<rect width="553" height="206" fill="white"/>
</clipPath>
</defs>
</svg>
