<svg width="21" height="22" viewBox="0 0 21 22" fill="none" xmlns="http://www.w3.org/2000/svg">
<path d="M17 21.3L16.4 20.8C14.4 18.9 13 17.7 13 16.2C13 15 14 14 15.2 14C15.9 14 16.6 14.3 17 14.8C17.4 14.3 18.1 14 18.8 14C20 14 21 14.9 21 16.2C21 17.7 19.6 18.9 17.6 20.8L17 21.3ZM18.5 10H17V6C17 4.89 16.1 4 15 4H11V2.5C11 1.12 9.88 0 8.5 0C7.12 0 6 1.12 6 2.5V4H2C0.9 4 0 4.9 0 6V9.8H1.5C3 9.8 4.2 11 4.2 12.5C4.2 14 3 15.2 1.5 15.2H0V19C0 20.11 0.9 21 2 21H5.8V19.5C5.8 18 7 16.8 8.5 16.8C9.44 16.8 10.27 17.27 10.75 18H11.09C11.04 17.67 11 17.34 11 17C11 13.69 13.69 11 17 11C18.54 11 19.94 11.58 21 12.53C21 12.5 21 12.5 21 12.5C21 11.12 19.88 10 18.5 10Z" fill="#6582FF"/>
</svg>
